<svg version="1.1" id="Layer_1" xmlns="http://www.w3.org/2000/svg" xmlns:xlink="http://www.w3.org/1999/xlink" x="0px" y="0px"
	 width="100%" viewBox="0 0 1024 576" enable-background="new 0 0 1024 576" xml:space="preserve">
<path fill="#000000" opacity="1.000000" stroke="none" 
	d="
M268.483582,237.640411 
	C289.957794,140.474487 367.087402,64.425262 464.018585,47.077282 
	C548.770386,31.909063 624.030273,52.997402 687.174500,112.406258 
	C726.641113,149.538177 750.486816,195.450775 759.474243,249.002960 
	C761.184509,259.193970 762.157959,269.441376 762.739075,279.731934 
	C762.969727,283.816650 764.809875,285.247803 768.749512,284.888519 
	C774.173584,284.393829 779.719360,285.739899 785.056274,283.572296 
	C786.920715,282.815002 788.734619,283.582153 789.760681,285.403900 
	C790.638672,286.962830 790.580017,288.646301 789.490295,290.115295 
	C788.307251,291.710205 786.586121,292.804688 784.729553,291.822601 
	C780.932007,289.813690 776.922180,290.397064 772.970642,290.396729 
	C607.154480,290.383453 441.338287,290.398682 275.522095,290.410278 
	C267.198486,290.410858 258.874817,290.399689 250.551254,290.416718 
	C247.569580,290.422821 244.585541,290.169464 241.765274,291.694397 
	C239.731247,292.794189 237.785919,292.043762 236.432327,290.318390 
	C235.192886,288.738556 235.196396,286.816071 236.275772,285.164734 
	C237.511795,283.273743 239.477814,282.695801 241.550278,283.529236 
	C247.369049,285.869232 253.417725,284.353424 259.347229,284.755585 
	C262.364685,284.960236 262.763489,282.949097 262.933472,280.542297 
	C263.882355,267.107147 265.089447,253.699142 267.798615,240.476410 
	C267.965515,239.661804 268.189667,238.858902 268.483582,237.640411 
M735.296936,256.497040 
	C736.190063,264.595032 737.664734,272.644867 737.356934,280.842957 
	C737.240906,283.934448 738.935730,284.972015 741.738586,284.833374 
	C746.163818,284.614441 750.589355,284.402618 754.997192,284.188629 
	C756.671936,223.867554 723.954468,130.123077 629.712708,79.091225 
	C533.719116,27.110701 413.618774,44.367470 336.868958,124.116013 
	C297.036377,165.504898 275.204376,215.204239 270.601990,272.457642 
	C270.281555,276.443939 269.729004,280.499237 271.221100,285.199005 
	C275.726685,281.798401 272.175629,276.016296 276.227112,273.252533 
	C277.696503,275.504486 277.197754,277.744019 277.050323,279.796722 
	C276.758362,283.861206 278.589050,284.971100 282.365570,284.904175 
	C286.111633,284.837769 288.944061,284.599548 288.711090,279.670013 
	C288.491547,275.024811 289.016663,270.384033 289.515076,265.731110 
	C293.823181,225.513992 308.415283,189.425583 332.328522,156.903992 
	C337.835999,149.413895 345.168732,143.357391 349.335999,134.817764 
	C350.175171,133.098068 352.211884,132.587677 354.179901,133.113312 
	C356.124817,133.632797 357.327545,134.937500 357.647430,136.952866 
	C357.966278,138.961899 357.338135,140.918747 355.551392,141.638016 
	C351.778137,143.156952 349.384094,146.146942 346.913727,149.017075 
	C331.470459,166.959091 319.005554,186.753784 310.125153,208.747070 
	C301.135132,231.011749 296.016693,254.117905 294.671326,278.106506 
	C294.306488,284.611481 294.141449,284.826111 300.821259,284.826416 
	C425.972168,284.832001 551.123047,284.838440 676.273987,284.843262 
	C692.938416,284.843903 709.602783,284.823822 726.267212,284.844971 
	C729.308594,284.848816 731.765259,284.878357 731.529236,280.438293 
	C729.926270,250.284607 723.198914,221.417480 709.296143,194.546051 
	C699.051575,174.745117 688.087219,155.296158 669.960938,141.213135 
	C668.398926,139.999557 667.921875,138.222763 668.515015,136.251144 
	C669.117126,134.249771 670.560486,133.198181 672.537415,133.039368 
	C674.500427,132.881699 676.394653,133.587402 677.045715,135.502335 
	C678.510681,139.811005 681.888672,142.628799 684.663330,145.906235 
	C697.870605,161.506668 708.869141,178.477448 717.491272,197.052979 
	C726.177795,215.767212 731.866577,235.322708 735.296936,256.497040 
z"/>
<path fill="#000000" opacity="1.000000" stroke="none" 
	d="
M483.000061,401.682587 
	C580.820496,401.687500 678.140930,401.693909 775.461304,401.692566 
	C778.605713,401.692505 781.730835,401.917419 784.742859,400.389740 
	C786.571533,399.462189 788.345886,400.409027 789.528259,402.044281 
	C790.608337,403.538177 790.625977,405.242645 789.653320,406.744080 
	C788.584229,408.394379 786.877014,409.476166 784.947388,408.666260 
	C778.976990,406.160309 772.765869,407.504120 766.675415,407.358795 
	C756.849060,407.124359 747.010620,407.418823 737.182068,407.235413 
	C733.745605,407.171295 731.803589,408.414490 730.039673,411.371643 
	C697.287598,466.279236 650.697449,504.019440 589.783813,523.775452 
	C554.370178,535.261108 518.098206,537.830322 481.245453,533.513916 
	C435.617035,528.169678 394.850098,510.950043 358.610016,482.904480 
	C334.096771,463.934113 313.764648,441.151367 298.077240,414.402466 
	C295.036102,409.217010 291.889587,406.831879 285.594727,407.138641 
	C273.458466,407.730072 261.273010,407.310242 249.107956,407.315063 
	C246.618454,407.316071 244.144333,407.181824 241.792587,408.416260 
	C239.732086,409.497772 237.836716,408.848236 236.520828,407.017212 
	C235.355453,405.395630 235.278137,403.485870 236.444519,401.871185 
	C237.743271,400.073273 239.681961,399.387115 241.733963,400.498749 
	C244.395248,401.940460 247.218781,401.683167 250.031616,401.683380 
	C327.521088,401.688965 405.010590,401.685120 483.000061,401.682587 
M571.093018,521.579346 
	C637.330933,504.610657 688.069519,466.890472 724.655640,407.351044 
	C717.168884,407.351044 711.258911,407.356537 705.348999,407.348389 
	C702.977844,407.345093 701.938965,409.082764 700.752441,410.718384 
	C696.840759,416.110687 692.898254,421.480896 688.935425,426.835815 
	C678.667175,440.711212 664.977722,451.270630 653.179688,463.664398 
	C651.944336,464.962158 650.386047,465.513794 648.642273,464.640656 
	C647.049194,463.842896 646.009460,462.552155 645.921143,460.737579 
	C645.829468,458.854889 646.843994,457.425049 648.553101,456.901489 
	C651.889587,455.879486 654.273010,453.518768 656.787354,451.378601 
	C669.148743,440.856628 680.102539,429.005280 689.758423,415.962433 
	C691.603455,413.470306 693.222412,410.810852 695.285828,407.718811 
	C573.674927,407.718811 452.842499,407.718811 331.678711,407.718811 
	C331.906738,408.795410 331.863770,409.526917 332.191284,410.004181 
	C344.600830,428.086639 358.548950,444.707855 377.205200,456.762726 
	C378.898712,457.857025 380.147369,459.008453 380.025940,461.039886 
	C379.917633,462.852631 378.764984,464.103943 377.093994,464.752899 
	C375.089569,465.531281 373.527863,464.674744 372.242188,463.172821 
	C371.277100,462.045410 370.527435,460.679291 369.409729,459.745056 
	C352.162109,445.328186 337.151489,428.904572 324.759796,410.127991 
	C323.555725,408.303528 322.142761,407.276978 319.871857,407.308655 
	C314.319458,407.386230 308.765198,407.333984 302.535431,407.333984 
	C303.412231,409.120636 303.777954,410.022827 304.271332,410.848755 
	C326.219421,447.588867 356.052704,476.227692 393.323517,497.118195 
	C423.662659,514.123474 456.191437,524.582886 490.852905,527.377136 
	C517.520630,529.527039 544.130371,528.236450 571.093018,521.579346 
z"/>
<path fill="#000000" opacity="1.000000" stroke="none" 
	d="
M317.692749,319.741516 
	C321.488922,319.258331 323.287231,321.141296 324.905243,323.754791 
	C329.551575,331.259827 334.362030,338.663300 339.121674,346.097900 
	C339.292450,346.364685 339.608063,346.538727 340.249969,347.100769 
	C343.141937,344.619354 344.656219,341.076019 346.721863,338.003784 
	C350.067535,333.027893 353.294189,327.966827 356.408325,322.842743 
	C357.781311,320.583679 359.512878,319.633270 362.134338,319.715149 
	C366.462769,319.850220 370.799286,319.815521 375.130524,319.741058 
	C378.004242,319.691650 379.388092,320.771576 379.364288,323.839539 
	C379.277710,335.003571 379.278717,346.169281 379.377991,357.333160 
	C379.405396,360.414337 378.048584,361.476868 375.153137,361.377197 
	C371.990875,361.268311 368.816193,361.239410 365.657196,361.390717 
	C362.156647,361.558380 360.936249,360.168915 361.246002,356.627075 
	C361.751465,350.847015 361.637512,345.034668 360.999756,338.074371 
	C356.897247,344.983185 353.306335,351.041870 349.703979,357.093750 
	C346.011627,363.296783 334.786926,363.451843 331.101318,357.298462 
	C327.427734,351.165131 323.870911,344.961914 319.300262,338.850342 
	C319.300262,344.666809 319.101013,350.492493 319.368805,356.296631 
	C319.553955,360.310364 317.989227,361.522064 314.133575,361.416016 
	C298.972809,360.998993 301.250214,363.619843 301.084381,348.556854 
	C300.996368,340.560608 301.188385,332.561707 301.174988,324.564117 
	C301.169159,321.079163 302.431183,319.371857 306.241180,319.682007 
	C309.882996,319.978546 313.568146,319.742981 317.692749,319.741516 
z"/>
<path fill="#000000" opacity="1.000000" stroke="none" 
	d="
M509.592316,329.373871 
	C509.858185,319.424408 508.241089,319.632935 518.764465,319.758362 
	C529.396484,319.885040 540.038757,319.213928 550.653931,320.688568 
	C562.485474,322.332245 568.442871,329.852844 565.260925,339.562592 
	C564.344177,342.360016 562.552551,344.474609 559.919922,346.429718 
	C564.242737,350.465973 564.919373,355.578217 565.540161,361.328583 
	C560.487610,361.328583 555.870178,361.305603 551.253174,361.337677 
	C548.717407,361.355316 547.976624,359.621124 547.234680,357.640930 
	C544.812012,351.175446 535.450500,347.445404 529.249390,350.356384 
	C526.915466,351.451965 527.664429,353.447021 527.879700,355.140900 
	C528.480408,359.867554 526.763123,361.585571 521.808533,361.471283 
	C509.600189,361.189789 509.601105,361.411530 509.605530,349.279968 
	C509.607880,342.790741 509.585236,336.301514 509.592316,329.373871 
M539.132446,338.676392 
	C540.293457,338.596283 541.514465,338.717224 542.602478,338.392487 
	C544.605164,337.794708 547.422546,337.583374 547.378967,334.834991 
	C547.330139,331.752533 544.403137,331.575806 542.163330,331.420074 
	C538.514587,331.166473 534.838440,331.330963 531.175476,331.248749 
	C528.367676,331.185791 527.356323,332.579132 527.402039,335.264160 
	C527.447510,337.932434 528.867310,338.708527 531.237244,338.657593 
	C533.568054,338.607483 535.901245,338.667145 539.132446,338.676392 
z"/>
<path fill="#000000" opacity="1.000000" stroke="none" 
	d="
M402.009521,361.362061 
	C398.180908,361.357727 394.845856,361.247589 391.520416,361.379852 
	C388.565033,361.497437 387.243683,360.204620 387.160706,357.308655 
	C386.831451,345.815918 387.122192,334.334351 387.651123,322.854187 
	C387.762665,320.432983 389.221649,319.783051 391.304688,319.781769 
	C404.628082,319.773560 417.951599,319.795044 431.274750,319.733337 
	C435.685211,319.712921 435.207703,322.775146 435.269104,325.617981 
	C435.334045,328.625885 435.342468,331.350281 431.033661,331.255127 
	C424.042267,331.100677 417.044617,331.180481 410.050293,331.240021 
	C408.140015,331.256287 405.534119,330.832703 405.652618,333.844604 
	C405.757568,336.511993 408.235321,335.977661 409.936279,336.008423 
	C415.263885,336.104858 420.595245,336.112671 425.923218,336.030029 
	C429.398712,335.976135 430.498688,337.594757 430.443237,340.953186 
	C430.389313,344.220337 429.077454,345.383881 425.937836,345.315887 
	C420.444519,345.196899 414.946655,345.274780 409.450775,345.291748 
	C407.561768,345.297577 405.538818,345.329468 405.521790,347.948456 
	C405.504303,350.633514 407.603088,350.562714 409.450287,350.560883 
	C416.776978,350.553497 424.110596,350.676483 431.427338,350.388092 
	C435.104492,350.243195 437.575500,350.407196 437.406616,355.151489 
	C437.269348,359.008179 437.425354,361.779755 431.978882,361.508331 
	C422.176910,361.019836 412.333405,361.364899 402.009521,361.362061 
z"/>
<path fill="#000000" opacity="1.000000" stroke="none" 
	d="
M733.020020,350.650848 
	C738.347290,350.640686 743.183105,350.760651 748.007568,350.578735 
	C751.806458,350.435486 752.431335,352.544373 752.289856,355.625732 
	C752.160034,358.455017 752.732971,361.413513 748.229248,361.374969 
	C734.237061,361.255249 720.242920,361.292633 706.250244,361.385010 
	C703.160706,361.405426 702.098938,359.958191 702.133972,357.142883 
	C702.274414,345.830841 702.400452,334.518646 702.509521,323.206268 
	C702.530823,320.997131 703.449768,319.772675 705.782043,319.776672 
	C719.275269,319.799805 732.768494,319.800354 746.261719,319.818939 
	C750.676758,319.825043 750.021667,323.107239 750.135315,325.876556 
	C750.255066,328.793793 749.915100,331.230896 746.021484,331.186584 
	C738.859436,331.105103 731.695435,331.174438 724.532471,331.223328 
	C722.534729,331.236938 720.178833,331.049866 720.450012,334.133026 
	C720.706543,337.048584 723.026184,336.067810 724.700745,336.079437 
	C730.197571,336.117615 735.695251,336.125793 741.191833,336.068878 
	C744.481934,336.034790 745.385498,337.705383 745.382080,340.782410 
	C745.378540,343.963654 744.277466,345.333496 741.023682,345.264435 
	C735.362610,345.144287 729.696777,345.248993 724.032898,345.269348 
	C722.053894,345.276459 720.269531,345.552216 720.420959,348.199554 
	C720.558105,350.596802 722.327087,350.582092 724.027832,350.604767 
	C726.859497,350.642517 729.691650,350.637665 733.020020,350.650848 
z"/>
<path fill="#000000" opacity="1.000000" stroke="none" 
	d="
M591.896790,322.685974 
	C594.411438,318.397919 598.314392,320.235321 601.586975,319.711548 
	C607.784241,318.719757 611.608398,321.173065 614.777283,326.688690 
	C620.493225,336.637512 627.061584,346.095428 633.224548,355.789734 
	C634.166321,357.271149 635.663879,358.622101 634.928345,361.246399 
	C629.946472,361.246399 624.835693,361.262634 619.725159,361.235077 
	C618.436035,361.228119 617.388306,360.455719 616.950623,359.381348 
	C615.194275,355.070007 611.634766,355.020782 607.829468,355.149567 
	C604.004089,355.279022 600.164490,355.314453 596.342896,355.137573 
	C592.337952,354.952240 588.651794,355.042755 586.818176,359.531128 
	C586.369507,360.629303 585.341125,361.359253 584.043213,361.363739 
	C578.931824,361.381317 573.820312,361.370941 567.021790,361.370941 
	C575.778931,347.753082 583.733948,335.382629 591.896790,322.685974 
M601.229187,335.381256 
	C599.734680,337.681671 597.658569,339.711914 597.509277,343.212341 
	C600.604675,343.630951 603.410400,344.287628 606.232056,342.866150 
	C605.263306,338.414368 604.938110,337.860382 601.229187,335.381256 
z"/>
<path fill="#000000" opacity="1.000000" stroke="none" 
	d="
M671.331848,339.387695 
	C673.948181,333.764557 676.457397,328.501068 678.825562,323.174805 
	C679.909912,320.736176 681.535645,319.545990 684.247437,319.758606 
	C688.634644,320.102600 693.126892,319.070038 697.426270,320.464111 
	C697.889526,322.992493 696.375244,324.529266 695.446228,326.207794 
	C689.719360,336.554596 683.815979,346.805115 678.201172,357.211700 
	C676.567078,360.240417 674.495911,361.065643 671.156311,361.518829 
	C662.195435,362.734833 656.746399,359.819885 653.043518,351.155548 
	C649.204224,342.172241 643.611633,333.939850 638.816223,325.362061 
	C638.029236,323.954285 636.821289,322.644684 637.435242,320.234283 
	C642.306946,319.262695 647.407715,319.747375 652.465881,319.951630 
	C654.888733,320.049469 655.452271,322.348328 656.290588,324.117218 
	C659.840088,331.606812 663.346436,339.116882 667.349426,347.643738 
	C668.931702,344.360413 670.049377,342.041077 671.331848,339.387695 
z"/>
<path fill="#000000" opacity="1.000000" stroke="none" 
	d="
M228.010742,331.185364 
	C223.663635,331.254852 219.723358,331.885559 219.892990,325.719269 
	C220.014771,321.292755 221.267090,319.549316 225.970993,319.654785 
	C238.797379,319.942322 251.636536,319.899261 264.465759,319.689880 
	C268.865570,319.618073 270.251587,321.229706 270.271881,325.518738 
	C270.292603,329.895996 268.734741,331.324646 264.408051,331.282867 
	C253.014038,331.172882 254.352066,329.782562 254.259537,341.313843 
	C254.218094,346.479919 254.173462,351.648193 254.279205,356.812408 
	C254.341415,359.851196 253.399307,361.444336 250.018204,361.383881 
	C233.062790,361.080414 236.224182,363.637543 235.894730,348.125427 
	C235.827499,344.960236 235.880051,341.792542 235.867905,338.626068 
	C235.839615,331.252563 235.837280,331.252563 228.010742,331.185364 
z"/>
<path fill="#000000" opacity="1.000000" stroke="none" 
	d="
M459.161377,331.207336 
	C452.654419,331.033844 455.101196,326.430389 454.758057,323.437775 
	C454.383850,320.174103 456.670776,319.720856 459.275330,319.727234 
	C472.737274,319.760193 486.201294,319.882355 499.660278,319.682556 
	C504.559662,319.609863 504.251892,322.528931 504.382263,325.860992 
	C504.524780,329.504456 503.613892,331.274414 499.458282,331.311066 
	C488.364685,331.409058 488.367157,331.583557 488.365356,342.938202 
	C488.364594,347.757935 488.308868,352.578369 488.375397,357.397125 
	C488.411987,360.045868 487.416870,361.514984 484.599701,361.347504 
	C484.268951,361.327850 483.935150,361.352631 483.603027,361.364166 
	C470.591980,361.815277 470.592865,361.815399 470.589752,348.925842 
	C470.588898,345.435699 470.619568,341.944977 470.568207,338.455536 
	C470.467041,331.581573 470.112976,331.257263 463.121582,331.226440 
	C461.958191,331.221313 460.794769,331.219269 459.161377,331.207336 
z"/>
<path fill="#000000" opacity="1.000000" stroke="none" 
	d="
M804.684937,361.019684 
	C790.274963,361.231201 776.317078,361.235168 762.360474,361.373962 
	C759.121887,361.406128 757.885132,359.997345 757.899231,356.902802 
	C757.949280,345.934662 757.937988,334.966156 757.920166,323.997833 
	C757.915527,321.145508 759.113403,319.726685 762.113342,319.775391 
	C778.975525,320.049042 775.942871,317.562775 776.234192,333.010468 
	C776.312561,337.163666 776.417053,341.329590 776.185974,345.471619 
	C775.973999,349.270538 777.182190,350.907715 781.252991,350.711578 
	C787.221680,350.424011 793.215027,350.640961 799.197876,350.656464 
	C806.856018,350.676270 808.347046,353.244263 804.684937,361.019684 
z"/>
<path fill="#000000" opacity="1.000000" stroke="none" 
	d="
M280.163574,361.359161 
	C276.299927,361.690460 274.854889,360.220551 274.892761,356.764435 
	C275.011353,345.938141 274.991760,335.110016 274.971649,324.282684 
	C274.966034,321.251495 276.065063,319.673462 279.377045,319.730042 
	C296.026398,320.014496 293.011902,317.712982 293.263428,332.752106 
	C293.391541,340.412476 293.068542,348.084808 293.357605,355.736328 
	C293.523590,360.128723 292.023163,361.881195 287.633392,361.406555 
	C285.328217,361.157288 282.973999,361.361908 280.163574,361.359161 
z"/>
<path fill="#000000" opacity="1.000000" stroke="none" 
	d="
M379.027008,242.969620 
	C372.260254,244.525375 366.364899,248.105103 360.501678,251.512436 
	C350.698822,257.209229 341.123352,260.983154 331.291443,252.248138 
	C326.881836,256.545258 320.092438,255.871140 314.323730,250.665329 
	C319.101257,247.698578 323.519958,244.147278 328.546906,242.062607 
	C333.466278,240.022522 336.009827,234.602982 334.652649,230.616135 
	C333.090546,226.027191 335.729065,224.504715 338.661774,222.998795 
	C342.171143,221.196762 345.534607,219.362289 348.804840,217.034836 
	C352.242920,214.587875 352.700043,212.715347 351.042572,209.359512 
	C348.948456,205.119675 349.648529,200.629730 349.987701,195.552917 
	C358.258820,198.521469 360.676483,205.742752 363.867218,212.337387 
	C365.143646,211.781601 364.502136,210.937347 364.379669,210.289352 
	C364.257843,209.644623 363.913605,209.044800 363.700104,208.414062 
	C360.822815,199.914627 358.301300,191.304932 354.530853,183.105209 
	C352.304474,178.263306 354.207245,173.092514 354.447144,167.859024 
	C359.225769,171.477844 363.436188,175.249634 364.918091,181.094101 
	C368.400696,194.829605 373.853760,207.913589 378.118408,221.388733 
	C378.993347,224.153320 380.508148,224.920746 383.389557,224.273941 
	C392.758972,222.170654 394.159821,219.294144 395.905304,209.256851 
	C399.817810,186.757904 395.278625,165.019867 391.598816,143.137955 
	C391.271088,141.189285 390.371307,139.340317 389.995728,137.395126 
	C389.698853,135.857605 390.041443,134.263382 391.838257,133.777695 
	C393.629913,133.293411 394.706757,134.509949 395.284149,135.960144 
	C395.767426,137.173828 395.888367,138.535324 396.140320,139.837067 
	C399.429840,156.833084 403.491180,173.644760 410.467651,189.533844 
	C414.049194,197.690994 419.381561,204.940826 424.647888,212.142532 
	C425.821594,213.747528 427.238464,214.591782 429.342957,214.227737 
	C441.649231,212.099014 454.057556,210.753860 466.472046,209.456650 
	C466.901520,209.411758 467.294098,209.013168 467.739716,208.758972 
	C467.434662,206.023514 465.297119,206.441269 463.612854,206.157425 
	C456.839233,205.015839 449.975037,205.550980 443.165253,205.065659 
	C437.189728,204.639786 435.419189,203.438583 435.940857,197.467850 
	C436.462524,191.497253 435.772247,185.512634 437.046844,179.525024 
	C439.021759,170.247833 441.255463,161.092789 445.500153,150.987259 
	C442.711823,153.511902 442.190338,155.726471 441.412201,157.721161 
	C440.699036,159.549316 439.711578,160.652100 437.683289,159.828766 
	C436.051666,159.166428 435.679932,157.837692 435.993164,156.130844 
	C436.909698,151.135971 441.222504,147.156586 446.230133,146.783615 
	C447.216278,146.710175 448.356689,146.863434 449.158051,146.423782 
	C468.351837,135.893463 487.722778,137.203995 507.324829,145.214157 
	C511.814484,147.048813 516.273254,149.703247 521.616821,147.592010 
	C522.696106,147.165604 524.480408,148.183289 525.816284,148.801788 
	C534.734070,152.930603 543.884155,156.662689 552.408997,161.493912 
	C557.152649,164.182236 561.852173,166.832031 566.823425,169.069763 
	C569.137939,170.111618 571.082947,171.905090 571.237915,174.711884 
	C571.687317,182.851837 573.593933,190.848373 573.334229,199.070297 
	C573.104492,206.346115 573.149536,206.510666 566.002380,207.472382 
	C565.022156,207.604279 564.058350,207.857849 562.470886,208.180206 
	C565.031921,209.981720 567.385681,210.524124 569.947937,210.697571 
	C572.434937,210.865921 574.902222,211.310303 577.382996,211.590469 
	C578.706299,211.739914 580.109436,211.566452 581.356323,211.939941 
	C585.769348,213.261765 588.514526,211.742218 589.571899,207.325333 
	C590.302307,204.274124 592.055237,203.420807 595.073059,203.863739 
	C600.990967,204.732285 606.793213,201.748901 609.518250,196.207550 
	C611.858887,191.447708 614.265442,186.598816 614.609192,181.173294 
	C614.804016,178.097595 617.180054,176.361008 618.884155,174.739670 
	C622.251770,171.535461 623.909180,167.641113 624.868103,163.496811 
	C626.454407,156.641022 629.278564,150.184799 629.810425,142.907806 
	C630.152954,138.220520 631.874573,133.303772 633.088928,128.518570 
	C633.483704,126.963142 634.401062,125.423775 636.725708,125.478584 
	C638.652588,128.294159 636.373291,130.825989 635.949036,133.399200 
	C635.580933,135.631912 635.329834,137.209106 638.049072,138.022568 
	C640.388550,138.722427 641.460205,140.156601 640.482727,142.980713 
	C639.364990,146.210083 639.311462,149.455902 642.963257,151.633286 
	C645.211975,152.974091 644.276489,154.824249 642.933594,156.260803 
	C636.621155,163.013611 633.818787,171.202606 634.190308,180.195633 
	C634.433289,186.077393 631.215149,190.860825 630.552490,196.386368 
	C630.005615,200.946548 628.570984,205.359222 632.357666,209.404251 
	C633.648499,210.783173 634.827209,211.374634 636.431763,211.554871 
	C638.953674,206.867661 641.909058,205.778549 648.380554,209.233902 
	C653.324707,211.873718 656.433716,211.448288 660.329224,207.642044 
	C663.395142,204.646408 667.756226,202.374039 671.973816,202.372833 
	C676.962036,202.371414 682.031372,203.500366 687.371399,203.315933 
	C687.055115,207.503586 683.753906,209.604050 683.193970,213.242249 
	C687.085571,213.832443 691.149231,212.707199 694.610901,214.431625 
	C695.431458,216.890091 693.015930,217.856506 692.822876,220.031250 
	C697.426392,221.284454 702.720276,220.181656 706.768188,223.320099 
	C707.152466,225.153030 705.849976,225.928452 704.885315,226.722855 
	C701.884827,229.193710 700.363464,231.996613 702.137573,235.881744 
	C702.402832,236.462631 702.624146,237.308502 702.399475,237.831421 
	C698.963257,245.827606 705.515259,246.992905 710.236938,249.473907 
	C711.961853,250.380249 713.963745,250.910934 715.251953,252.528854 
	C711.036072,258.150940 700.253967,261.347809 694.278687,258.827515 
	C689.982117,257.015259 685.716858,255.128098 681.411499,253.337112 
	C677.442627,251.686096 674.297974,249.303940 672.276733,245.294510 
	C670.206909,241.188782 666.075500,239.515137 661.862549,239.400909 
	C648.077881,239.027176 634.280457,238.191956 620.492615,239.311188 
	C619.209900,239.415314 617.767761,239.730347 616.737732,240.438919 
	C605.175171,248.393265 594.070251,244.765564 583.045044,239.209991 
	C581.875427,238.620636 580.771973,237.756760 579.871338,236.800385 
	C574.635254,231.240311 568.258972,230.798477 562.816772,235.158142 
	C555.859924,240.731216 547.610901,241.198151 539.720276,243.268845 
	C536.413330,244.136642 533.237488,245.847916 529.273132,245.408813 
	C530.172974,240.500900 533.988098,239.180817 537.645752,237.880264 
	C540.301758,236.935852 543.107605,236.417755 545.834961,235.667007 
	C546.957092,235.358124 548.061401,234.971954 549.151550,234.561951 
	C553.821472,232.805649 558.172791,226.161682 557.058105,222.522003 
	C556.114746,219.441666 549.926758,217.851196 544.518127,219.905823 
	C540.660767,221.371155 536.630371,223.126511 533.556152,225.773300 
	C522.806641,235.028336 509.925964,238.543259 496.398224,240.125015 
	C490.011597,240.871765 487.146759,244.751144 485.199310,249.880173 
	C483.729767,253.750687 482.854950,257.844421 481.651825,261.819550 
	C480.865265,264.418365 482.428162,265.868591 484.128754,267.307739 
	C485.328064,268.322632 487.200836,268.788971 487.192261,270.940308 
	C485.269775,273.069092 482.822205,272.459290 480.667236,271.985962 
	C474.482635,270.627594 468.344177,269.052032 463.043060,265.295197 
	C459.308929,262.648804 455.332184,261.433472 450.852692,263.438171 
	C450.108795,263.771088 449.188416,264.112030 448.439606,263.971100 
	C437.673248,261.944244 426.560242,261.879425 416.066803,258.353424 
	C413.572876,257.515442 411.940277,255.896622 411.612335,252.947525 
	C410.129974,239.616013 401.261810,233.970825 388.298004,238.031464 
	C386.409607,238.622986 384.635864,239.580750 382.260681,240.731354 
	C380.817200,241.718994 379.922089,242.344315 379.027008,242.969620 
M489.477661,169.845215 
	C495.181702,167.564331 500.878418,165.121536 507.089539,164.766602 
	C510.538239,164.569534 511.787598,163.040192 511.713226,159.787659 
	C511.671753,157.974121 511.798218,156.118469 512.157104,154.344101 
	C512.570923,152.298187 511.788605,151.237900 509.980988,150.526840 
	C502.542572,147.600891 494.904938,145.463242 486.976135,144.341507 
	C482.139435,143.657211 479.104431,145.714630 477.111389,150.010834 
	C474.150574,156.393173 472.637634,163.176041 471.230103,169.999283 
	C470.741089,172.369873 469.560730,174.737228 471.352112,177.925232 
	C477.132507,175.340912 482.949585,172.740204 489.477661,169.845215 
M469.337341,161.086472 
	C469.804291,159.041565 470.271240,156.996658 470.996552,153.820404 
	C469.171539,156.524063 468.342407,158.994675 465.473175,157.267090 
	C462.649353,155.566849 464.307922,153.504791 465.118286,151.643280 
	C466.280273,148.973969 467.933289,146.583466 470.331390,144.418365 
	C468.425201,144.418365 466.897125,144.187439 465.464111,144.458694 
	C459.538147,145.580414 453.006592,145.383011 449.404449,151.747131 
	C444.752625,159.965607 442.627716,169.030716 440.457275,178.077316 
	C439.840942,180.646210 441.006134,181.905411 443.717224,181.430511 
	C449.491852,180.419006 455.326202,180.638733 461.137787,180.714050 
	C464.247467,180.754333 465.577637,179.458893 466.084259,176.479172 
	C466.918152,171.574600 468.067505,166.723679 469.337341,161.086472 
M532.426514,160.355209 
	C528.215454,156.243423 522.615417,155.521347 517.280518,153.611176 
	C515.639648,157.112701 515.501892,160.384949 515.292053,163.652618 
	C515.163513,165.653320 516.173462,166.797653 517.963074,167.270508 
	C522.236694,168.399734 526.532104,169.446365 530.820007,170.526672 
	C532.835693,167.387314 532.532104,164.222626 532.426514,160.355209 
M544.631531,173.961655 
	C546.889587,172.528732 548.354126,167.149719 547.005432,165.242706 
	C545.794373,163.530334 537.099854,160.827591 536.108948,161.950241 
	C535.615295,162.509521 535.459045,163.433960 535.314331,164.223343 
	C534.029846,171.227982 535.420837,172.781998 544.631531,173.961655 
M413.471832,217.091675 
	C415.493347,216.204803 419.616547,216.212357 416.331970,212.528946 
	C413.471130,209.320770 409.323914,209.382736 405.670593,211.082108 
	C402.513580,212.550644 399.935822,214.938599 400.708832,219.034622 
	C401.337219,219.249146 401.671692,219.491638 401.950623,219.439102 
	C405.546844,218.761948 409.135162,218.042755 413.471832,217.091675 
M560.325317,175.706757 
	C560.817505,169.779251 558.674255,167.861679 550.578918,167.200836 
	C550.524780,170.219498 548.692749,173.836563 551.827332,175.859970 
	C553.991577,177.257034 557.119568,179.080872 560.325317,175.706757 
M505.709320,195.656250 
	C502.173859,197.965744 502.859924,201.264389 503.770203,204.503723 
	C504.081055,205.609756 505.038483,206.480621 506.349548,206.524933 
	C507.704865,206.570740 508.533783,205.665024 508.911194,204.541077 
	C510.092499,201.023193 510.249329,197.718719 505.709320,195.656250 
M407.609375,195.636688 
	C406.564545,193.914673 406.565735,191.386444 403.627594,190.712265 
	C401.447723,193.998245 402.405396,197.432236 402.793304,201.375137 
	C405.447113,200.180283 410.262390,202.040802 407.609375,195.636688 
M676.620300,227.105743 
	C678.102600,230.007217 681.146484,230.425201 683.422729,229.724716 
	C686.009338,228.928711 686.717834,226.052017 686.426941,222.992294 
	C682.714111,223.420380 679.883484,225.083603 676.620300,227.105743 
M562.451599,177.002121 
	C563.482178,179.656128 565.750183,179.739304 568.026428,179.999481 
	C568.991760,173.995834 568.237915,172.931564 562.906067,172.446106 
	C562.065613,173.631912 562.456299,174.993805 562.451599,177.002121 
M461.710663,188.813187 
	C460.289795,189.766937 458.249908,190.180405 458.353973,192.640823 
	C461.347076,194.203339 464.166260,193.847443 466.821320,192.055634 
	C467.712097,191.454422 467.974915,190.297012 467.384338,189.373230 
	C466.082977,187.337570 464.127350,188.436813 461.710663,188.813187 
M666.044250,214.985596 
	C669.348816,213.318695 672.812988,211.763718 671.878601,206.212158 
	C668.423950,209.498978 665.209167,212.044205 662.586304,216.742767 
	C664.342712,215.869141 664.932678,215.575699 666.044250,214.985596 
M521.555725,204.660095 
	C523.263489,204.660095 524.971313,204.660095 526.679077,204.660095 
	C522.455444,204.181244 518.258972,203.729721 514.079956,203.014114 
	C516.135620,204.321075 518.401001,204.646713 521.555725,204.660095 
z"/>
<path fill="#000000" opacity="1.000000" stroke="none" 
	d="
M606.305603,170.194626 
	C608.456055,175.403625 607.007507,179.373383 603.234985,182.627075 
	C597.440735,187.624496 590.637146,189.897766 583.283691,190.564407 
	C583.130188,190.150269 582.976624,189.736130 582.823120,189.322006 
	C585.863037,188.240311 588.909058,187.175323 591.941101,186.072083 
	C594.784546,185.037460 597.397705,183.554626 599.716553,181.626862 
	C603.792603,178.238220 604.109375,173.710648 600.561829,169.311264 
	C596.836670,164.691544 591.883118,161.575577 586.931335,158.482101 
	C576.455444,151.937500 564.945251,147.354965 553.744568,142.410141 
	C549.302368,140.449020 543.471558,139.598801 538.153076,138.682449 
	C531.490417,137.534531 525.015564,135.041382 518.624268,132.682739 
	C515.462158,131.515778 513.833557,132.199036 512.096313,134.896378 
	C508.871338,139.903702 507.729706,139.843719 504.347717,135.217422 
	C502.366333,132.507004 499.394348,130.538162 498.936768,126.701569 
	C498.731079,124.976631 496.564117,124.646156 494.967865,124.100693 
	C488.824951,122.001534 482.614868,120.022987 477.196350,116.288185 
	C475.552032,115.154770 473.632263,113.879906 473.986664,111.608917 
	C474.389893,109.024925 476.967194,109.366219 478.802734,108.925941 
	C482.181458,108.115486 485.440521,109.036652 488.603760,110.074051 
	C495.720551,112.408012 502.794739,114.872131 509.881195,117.298119 
	C516.975891,119.726936 523.806946,119.572205 530.326721,115.442085 
	C531.100891,114.951653 532.343262,114.611198 533.160156,114.866966 
	C543.075378,117.971519 552.573914,114.225273 562.212891,113.139610 
	C565.754150,112.740746 568.753601,113.051834 571.442200,116.153641 
	C569.348633,118.314430 566.546997,118.166016 564.154541,118.858932 
	C561.992493,119.485100 560.545654,120.099770 561.084900,122.882576 
	C561.662476,125.863029 558.211243,128.858597 559.854553,131.466339 
	C561.612061,134.255249 565.509827,131.865646 568.225464,133.085602 
	C569.406494,133.616165 570.822571,133.891022 571.297791,135.620621 
	C568.146606,138.219955 563.359741,136.565689 560.164734,139.821091 
	C561.526978,141.582977 563.649475,142.084045 565.571045,142.870209 
	C575.616638,146.980133 585.289612,151.806442 594.284363,157.909988 
	C598.998108,161.108582 603.395630,164.663101 606.305603,170.194626 
M549.458130,126.106293 
	C550.896118,124.815132 552.334106,123.523972 553.772034,122.232811 
	C548.231750,123.129066 542.628235,123.250618 537.536011,126.110420 
	C541.360901,130.524323 543.460388,130.497986 549.458130,126.106293 
z"/>
<path fill="#000000" opacity="1.000000" stroke="none" 
	d="
M449.000000,282.164368 
	C416.168976,282.177124 383.837952,282.208191 351.506989,282.166321 
	C348.847870,282.162872 344.743988,283.107208 344.663452,279.238403 
	C344.578857,275.176239 348.923401,276.250732 351.376282,276.251038 
	C383.524933,276.255127 415.673462,276.548096 447.822235,276.575806 
	C523.312012,276.640839 598.802002,276.584900 674.291748,276.680542 
	C676.760193,276.683685 681.158691,275.021179 681.175720,279.128632 
	C681.193359,283.389526 676.695068,282.095001 673.984192,282.097717 
	C599.156189,282.172211 524.328064,282.160858 449.000000,282.164368 
z"/>
<path fill="#000000" opacity="1.000000" stroke="none" 
	d="
M405.697083,81.757500 
	C402.384460,83.248810 399.401459,84.558807 396.418488,85.868805 
	C397.761505,81.783813 401.146881,80.027016 404.227386,78.259438 
	C414.630249,72.290321 425.686676,67.953720 437.239716,64.530701 
	C450.022736,60.743240 462.851990,57.366154 475.939941,54.862179 
	C481.681152,53.763786 487.388245,52.803207 493.257263,52.900429 
	C504.719696,53.090286 516.180420,51.702263 527.643982,52.823048 
	C529.376648,52.992447 531.356873,52.457008 532.692139,54.260258 
	C532.137146,56.370037 530.348938,55.898842 529.035156,55.888985 
	C511.889740,55.760399 494.775452,56.852470 477.724792,58.227882 
	C468.721100,58.954178 459.830261,61.706512 451.017181,64.031914 
	C435.372070,68.160004 420.594818,74.626266 405.697083,81.757500 
z"/>
<path fill="#000000" opacity="1.000000" stroke="none" 
	d="
M600.602783,256.633789 
	C596.856140,255.575806 593.477356,254.730103 590.142944,253.735397 
	C588.300781,253.185867 585.745117,252.830963 586.625244,249.996475 
	C587.453247,247.330185 589.192688,245.207565 592.484314,245.843582 
	C594.427673,246.219086 596.312195,246.907059 598.215942,247.478455 
	C601.781067,248.548508 605.323120,249.027039 608.923401,247.539185 
	C613.834412,245.509644 618.248718,249.005966 623.015137,248.956696 
	C624.114136,248.945343 624.963440,250.215454 625.067017,251.485855 
	C625.209045,253.228165 624.162354,254.350327 622.690796,254.908264 
	C615.644958,257.579651 608.544922,259.905762 600.602783,256.633789 
z"/>
<path fill="#000000" opacity="1.000000" stroke="none" 
	d="
M378.879150,243.279709 
	C379.922089,242.344315 380.817200,241.718994 382.004242,240.928757 
	C384.151947,240.568451 385.896484,241.020462 387.663239,241.540741 
	C390.146729,242.272079 391.997070,243.834030 391.956696,246.350372 
	C391.915436,248.923462 389.254089,248.794983 387.426819,249.333206 
	C382.983368,250.642029 378.366364,251.616531 375.622894,255.964951 
	C375.367889,256.369141 374.942139,256.710266 374.523468,256.959198 
	C371.979492,258.471741 368.734955,259.808655 367.021698,256.900726 
	C365.275665,253.937119 368.017578,251.288574 370.696503,250.472702 
	C374.572021,249.292389 376.859467,246.820511 378.879150,243.279709 
z"/>
<path fill="#000000" opacity="1.000000" stroke="none" 
	d="
M318.958557,276.111206 
	C323.589386,276.293549 327.736633,276.456024 331.881409,276.666290 
	C333.486389,276.747711 334.948242,277.251953 335.005859,279.159729 
	C335.063049,281.052795 333.542389,281.884583 332.052155,281.912323 
	C323.753998,282.066925 315.452057,282.106201 307.152679,282.035187 
	C305.442902,282.020599 303.808411,281.194580 303.894409,279.036713 
	C303.970581,277.125000 305.489471,276.592072 307.036469,276.507294 
	C310.844757,276.298431 314.660980,276.233337 318.958557,276.111206 
z"/>
<path fill="#000000" opacity="1.000000" stroke="none" 
	d="
M721.395142,281.051788 
	C712.075623,283.115326 702.989136,281.909119 693.938049,281.933380 
	C692.419861,281.937439 690.980469,280.971130 691.035950,279.140930 
	C691.093201,277.250366 692.589417,276.688751 694.170715,276.681549 
	C702.608337,276.643127 711.048035,276.582611 719.483154,276.737457 
	C722.029602,276.784180 723.020569,278.326630 721.395142,281.051788 
z"/>
<path fill="#000000" opacity="1.000000" stroke="none" 
	d="
M572.351929,84.702469 
	C572.059875,88.170074 571.453796,90.825935 567.303711,89.982193 
	C563.966919,89.303810 561.702148,87.578285 561.857910,83.989128 
	C561.997314,80.777534 563.750671,78.661377 567.222351,78.675194 
	C570.888977,78.689781 572.804077,80.469521 572.351929,84.702469 
z"/>
<path fill="#000000" opacity="1.000000" stroke="none" 
	d="
M598.751221,71.725128 
	C590.496338,68.384773 581.767761,67.080818 573.629089,61.713600 
	C577.059814,60.579819 579.450195,62.045376 581.732422,62.670494 
	C587.158691,64.156776 592.522644,65.911598 597.809143,67.839447 
	C599.238037,68.360504 602.141602,69.301659 598.751221,71.725128 
z"/>
<path fill="#000000" opacity="1.000000" stroke="none" 
	d="
M464.390137,88.344353 
	C459.740631,86.759308 461.081635,82.751785 460.618286,79.606552 
	C460.327576,77.633186 462.432800,77.524193 463.795135,77.174644 
	C467.688019,76.175835 470.130280,77.956551 469.708984,81.933075 
	C469.524994,83.669777 470.380890,85.086075 470.249329,86.646935 
	C468.691956,88.412117 466.190369,86.554092 464.390137,88.344353 
z"/>
<path fill="#000000" opacity="1.000000" stroke="none" 
	d="
M595.674316,96.612228 
	C594.171143,95.583809 592.691833,99.702492 591.234802,96.363167 
	C590.656921,95.038666 593.736450,88.007568 595.036316,87.586487 
	C596.540588,87.099174 597.412170,87.987762 598.701294,91.380890 
	C600.030823,91.247627 601.011536,88.467438 602.670044,90.679932 
	C603.411926,91.669647 600.680054,99.165932 599.312134,99.611946 
	C596.956482,100.380005 596.010010,98.965919 595.674316,96.612228 
z"/>
<path fill="#000000" opacity="1.000000" stroke="none" 
	d="
M508.915466,82.053818 
	C508.445831,80.584717 508.098145,79.469902 508.037384,78.339661 
	C507.692078,71.917938 508.825623,71.020775 515.495300,72.304909 
	C517.330139,83.025002 516.505554,84.341187 508.915466,82.053818 
z"/>
<path fill="#000000" opacity="1.000000" stroke="none" 
	d="
M476.488708,84.502670 
	C476.869781,81.718689 477.121826,79.219955 477.837891,76.862144 
	C478.694763,74.040657 480.830505,72.945389 482.945099,75.350571 
	C485.057251,77.752983 486.332031,80.837288 486.850098,84.580254 
	C483.091644,82.195625 480.004944,86.153549 476.488708,84.502670 
z"/>
<path fill="#000000" opacity="1.000000" stroke="none" 
	d="
M414.344543,103.895432 
	C414.072144,105.967018 413.526825,108.313644 411.531799,106.184898 
	C409.460693,103.975029 407.573517,101.056450 408.286438,97.731659 
	C410.312866,96.473106 411.184601,98.946243 412.731873,98.414642 
	C414.251068,97.572433 412.675323,95.344437 415.130646,94.342201 
	C418.091217,96.435036 419.094940,99.800041 419.837555,103.085403 
	C417.912170,105.776527 416.102539,101.322884 414.344543,103.895432 
z"/>
<path fill="#000000" opacity="1.000000" stroke="none" 
	d="
M587.324707,85.457886 
	C585.976562,88.296967 584.756897,90.868935 584.727173,93.963341 
	C581.845032,94.639030 578.807251,94.338997 577.980835,91.619873 
	C577.076660,88.644638 578.412354,84.961693 580.683716,83.095558 
	C582.611023,81.512154 585.665894,82.609634 587.324707,85.457886 
z"/>
<path fill="#000000" opacity="1.000000" stroke="none" 
	d="
M548.448364,84.960480 
	C546.681580,85.298203 544.951294,85.242722 545.658264,83.307312 
	C546.771301,80.260254 547.858215,76.890152 550.959595,75.246323 
	C552.332153,74.518829 553.815552,75.485001 554.350342,77.230919 
	C555.261841,80.206772 555.841675,83.202705 555.426758,86.220795 
	C552.647827,87.392731 551.326843,83.488708 548.448364,84.960480 
z"/>
<path fill="#000000" opacity="1.000000" stroke="none" 
	d="
M428.568176,100.222672 
	C423.943787,98.937798 423.441498,94.818962 423.226288,91.605293 
	C423.048340,88.948357 426.654907,88.735321 429.193207,88.064171 
	C431.307739,90.884377 430.400696,94.961792 433.391357,97.002914 
	C432.525635,99.386864 430.460205,99.390556 428.568176,100.222672 
z"/>
<path fill="#000000" opacity="1.000000" stroke="none" 
	d="
M500.991577,72.408829 
	C502.727448,75.973480 500.973389,79.031464 499.813141,81.940613 
	C498.934265,84.144318 496.283417,84.362411 495.054169,82.287003 
	C493.461548,79.597977 491.356110,76.824303 491.925385,73.428963 
	C494.943939,71.655350 495.130737,75.126808 496.848755,75.646942 
	C498.355865,74.768333 498.281403,72.098846 500.991577,72.408829 
z"/>
<path fill="#000000" opacity="1.000000" stroke="none" 
	d="
M533.806030,264.805420 
	C528.872437,266.784546 529.429260,263.441162 530.361755,261.220551 
	C531.716248,257.994751 534.700012,255.625137 534.240662,251.412659 
	C534.054626,249.706223 536.651550,249.536728 538.341125,249.962082 
	C539.892090,250.352554 540.911133,252.229706 539.969116,252.906540 
	C535.879272,255.844955 537.158264,261.281586 533.806030,264.805420 
z"/>
<path fill="#000000" opacity="1.000000" stroke="none" 
	d="
M615.037109,104.829147 
	C612.084839,107.036652 609.779724,106.200775 607.930847,103.799835 
	C606.176208,101.521355 606.424011,99.034393 608.193848,96.936707 
	C609.954407,94.849998 612.307129,94.105110 614.873291,95.554733 
	C617.094543,96.809486 618.113770,98.591568 617.120178,100.907272 
	C614.375183,102.084785 613.123718,96.218353 611.180481,99.636566 
	C608.889221,103.666794 614.041931,101.651268 615.106506,103.197105 
	C615.334473,103.528130 615.208740,104.102745 615.037109,104.829147 
z"/>
<path fill="#000000" opacity="1.000000" stroke="none" 
	d="
M628.547791,104.912155 
	C630.087097,104.692329 631.446350,104.116005 632.500793,106.262779 
	C629.720459,108.417564 626.872070,110.625107 622.842896,113.747749 
	C623.371826,108.879921 623.763367,105.276260 624.132629,101.877640 
	C627.542114,101.007812 626.582520,104.426216 628.547791,104.912155 
z"/>
<path fill="#000000" opacity="1.000000" stroke="none" 
	d="
M526.586304,74.153305 
	C525.074402,78.377197 528.806519,79.657112 530.744751,82.032532 
	C527.969910,84.376228 524.712402,84.430260 523.354614,82.042328 
	C521.834473,79.369026 521.931824,75.572342 523.994019,72.726196 
	C524.893677,71.484459 526.006958,72.594978 526.586304,74.153305 
z"/>
<path fill="#000000" opacity="1.000000" stroke="none" 
	d="
M453.402161,80.531052 
	C452.551361,84.213470 453.511353,87.890541 453.059601,91.817543 
	C448.282532,90.454437 450.342712,84.067131 444.747681,84.306503 
	C447.425598,80.718407 450.174011,80.282555 453.402161,80.531052 
z"/>
<path fill="#000000" opacity="1.000000" stroke="none" 
	d="
M402.274109,107.875198 
	C402.951050,109.624268 404.981323,111.243813 402.954742,112.505890 
	C400.882904,113.796127 400.004364,111.460968 399.508850,110.079277 
	C398.612823,107.580879 395.727234,108.347031 394.222900,106.434181 
	C395.774689,103.348625 398.285461,102.201195 401.427704,102.076202 
	C402.781677,104.001823 400.705078,105.957390 402.274109,107.875198 
z"/>
<path fill="#000000" opacity="1.000000" stroke="none" 
	d="
M473.759460,522.553284 
	C472.087494,521.922913 470.316956,522.509705 469.318176,520.538025 
	C472.832214,519.261047 476.212372,518.389099 479.923340,519.183594 
	C486.715118,520.637695 493.628510,521.191101 500.405853,523.115906 
	C506.808716,524.934387 513.585876,522.673645 520.167664,521.955750 
	C537.012329,520.118530 554.003967,519.195618 570.489990,514.909424 
	C577.397095,513.113647 584.149048,510.722290 590.973755,508.608887 
	C593.742676,507.751434 596.471985,505.977722 599.723450,508.314697 
	C598.285034,510.459595 596.036011,511.164734 593.951660,511.842804 
	C566.613220,520.735962 538.787476,527.259094 509.823334,525.818970 
	C497.928589,525.227539 485.901154,525.148438 473.759460,522.553284 
z"/>
<path fill="#000000" opacity="1.000000" stroke="none" 
	d="
M418.094421,507.059631 
	C409.134460,502.626434 399.836609,499.421783 393.547913,491.268707 
	C416.362823,501.929169 439.474670,511.565765 464.621307,516.700806 
	C462.205475,521.668030 458.982178,520.203430 456.378510,519.525696 
	C443.496674,516.172913 430.778137,512.275452 418.094421,507.059631 
z"/>
<path fill="#000000" opacity="1.000000" stroke="none" 
	d="
M463.851288,497.055908 
	C464.514832,493.535431 465.550507,491.473358 469.550323,492.634674 
	C473.894623,493.896057 472.879547,496.607727 472.414459,499.684235 
	C471.889069,503.159393 470.216797,503.962555 466.916016,503.599365 
	C462.364014,503.098419 463.314240,500.255157 463.851288,497.055908 
z"/>
<path fill="#000000" opacity="1.000000" stroke="none" 
	d="
M548.225952,494.482452 
	C550.258423,493.494781 552.124146,493.364929 553.899414,493.821594 
	C556.784851,494.563843 557.870422,496.815094 557.564453,499.557312 
	C557.185852,502.950287 554.688232,504.164581 551.626221,504.588409 
	C548.436951,505.029846 548.841736,502.405670 548.316650,500.667938 
	C547.738892,498.755524 547.333252,496.785889 548.225952,494.482452 
z"/>
<path fill="#000000" opacity="1.000000" stroke="none" 
	d="
M502.632385,505.744537 
	C502.535034,503.924744 502.577972,502.442383 502.594818,500.959778 
	C502.628357,498.012695 504.323975,496.656555 507.043060,496.868866 
	C509.532043,497.063232 511.454834,497.843109 510.654419,501.288696 
	C510.155457,503.436676 512.235474,506.233185 508.924652,507.632202 
	C506.501953,508.656006 504.393616,508.275513 502.632385,505.744537 
z"/>
<path fill="#000000" opacity="1.000000" stroke="none" 
	d="
M421.796082,482.661377 
	C422.433136,478.740967 424.787048,478.120972 427.614929,479.544128 
	C432.686829,482.096588 428.615570,485.612213 427.903625,488.386780 
	C427.283295,490.804169 424.561554,490.666626 422.442719,489.541046 
	C418.990845,487.707306 419.918884,485.361542 421.796082,482.661377 
z"/>
<path fill="#000000" opacity="1.000000" stroke="none" 
	d="
M455.494446,489.787964 
	C456.690796,493.484680 457.955872,496.913177 456.198395,500.809235 
	C453.252167,499.683258 451.012878,496.613739 447.563660,499.278717 
	C447.702942,493.142120 451.014801,489.319305 455.494446,489.787964 
z"/>
<path fill="#000000" opacity="1.000000" stroke="none" 
	d="
M582.978271,487.090942 
	C584.327026,484.036163 586.686707,482.682648 589.005249,484.446747 
	C591.296021,486.189728 592.697571,489.152008 591.862610,492.314117 
	C591.409668,494.029572 589.766296,494.851440 588.011658,494.928162 
	C586.400513,494.998596 585.091431,494.199554 584.510132,492.669952 
	C583.869934,490.985565 583.444458,489.219635 582.978271,487.090942 
z"/>
<path fill="#000000" opacity="1.000000" stroke="none" 
	d="
M540.155945,502.774536 
	C541.913330,503.727112 543.113220,504.985840 540.854492,505.982971 
	C538.937805,506.829102 536.178101,508.274658 534.636047,505.541412 
	C533.148865,502.905396 532.871155,499.543457 534.215332,496.929016 
	C535.352539,494.717102 538.236450,495.466034 540.883423,495.619720 
	C540.455017,498.076111 542.078979,500.477020 540.155945,502.774536 
z"/>
<path fill="#000000" opacity="1.000000" stroke="none" 
	d="
M517.945190,497.945831 
	C520.884216,496.054657 520.519653,499.719574 522.238647,500.048065 
	C524.220825,500.142456 523.232910,496.740814 526.286621,497.222778 
	C527.854309,500.350861 527.686523,503.761658 526.593201,507.112000 
	C523.856689,507.953766 524.240723,504.712097 522.436768,504.716888 
	C520.821716,505.127258 521.557556,507.737915 519.070801,507.745972 
	C516.570068,505.027802 517.907532,501.498444 517.945190,497.945831 
z"/>
<path fill="#000000" opacity="1.000000" stroke="none" 
	d="
M407.398132,478.685059 
	C411.178223,471.248810 411.990204,471.017975 417.173096,475.614471 
	C416.434540,478.588898 412.166901,479.886658 413.511658,484.459595 
	C410.089233,483.706329 406.636536,483.966522 407.398132,478.685059 
z"/>
<path fill="#000000" opacity="1.000000" stroke="none" 
	d="
M596.169861,482.028625 
	C597.938416,478.626221 600.252136,477.568268 603.081665,480.027679 
	C605.446899,482.083527 604.588745,486.690338 601.255920,489.693420 
	C600.456055,486.510406 596.045471,486.210388 596.169861,482.028625 
z"/>
<path fill="#000000" opacity="1.000000" stroke="none" 
	d="
M435.968811,493.041626 
	C437.176208,490.021820 437.036865,487.314270 435.900879,484.497559 
	C439.547699,483.348846 441.817871,484.979370 444.424316,487.053589 
	C442.294739,489.226929 439.905579,490.674774 439.018463,493.537811 
	C438.468231,495.313629 436.909454,495.668671 435.968811,493.041626 
z"/>
<path fill="#000000" opacity="1.000000" stroke="none" 
	d="
M616.058655,477.232422 
	C615.946838,479.748138 617.045532,482.304047 614.178345,483.546417 
	C611.827271,482.075867 613.138733,479.712463 612.397766,478.214172 
	C611.618042,475.997955 608.874756,478.172638 608.143799,475.465546 
	C608.989136,473.189728 611.395325,472.146545 613.745056,472.339783 
	C615.892151,472.516357 615.613647,475.104797 616.058655,477.232422 
z"/>
<path fill="#000000" opacity="1.000000" stroke="none" 
	d="
M478.828613,499.956360 
	C479.339264,497.910828 479.074951,495.854523 481.935974,494.866241 
	C483.349731,498.192657 480.743378,503.375397 486.808594,504.556641 
	C480.468079,507.584442 478.588135,506.332642 478.828613,499.956360 
z"/>
<path fill="#000000" opacity="1.000000" stroke="none" 
	d="
M607.136841,502.923889 
	C610.280762,501.917114 612.518738,499.181885 616.786926,499.998016 
	C614.165527,505.147064 608.946228,504.428467 605.808777,507.241669 
	C604.122192,504.593231 605.720093,503.941711 607.136841,502.923889 
z"/>
<path fill="#000000" opacity="1.000000" stroke="none" 
	d="
M574.295410,488.243835 
	C578.392883,489.794342 577.588318,493.670044 578.662231,496.603394 
	C579.083557,497.754333 577.880554,498.702301 576.903992,498.197937 
	C574.274658,496.840088 574.647766,493.305939 572.297852,491.431335 
	C571.196655,490.552856 572.907532,489.180054 574.295410,488.243835 
z"/>
<path fill="#000000" opacity="1.000000" stroke="none" 
	d="
M496.081268,503.663147 
	C495.668854,505.464447 495.628174,507.161682 492.974518,506.801239 
	C492.269806,503.275116 492.140015,499.852386 494.174042,496.244965 
	C497.459747,498.347351 495.797302,501.030212 496.081268,503.663147 
z"/>
<path fill="#000000" opacity="1.000000" stroke="none" 
	d="
M584.780273,445.204956 
	C583.916626,442.707855 584.693115,441.308716 586.894775,440.845306 
	C588.288940,440.551910 589.531921,440.997406 590.267639,442.311859 
	C591.009888,443.638031 590.732788,444.920624 589.670593,445.905273 
	C588.024292,447.431366 586.408752,447.163391 584.780273,445.204956 
z"/>
<path fill="#000000" opacity="1.000000" stroke="none" 
	d="
M562.071899,444.666718 
	C561.926636,442.097076 562.979370,440.872498 565.182983,440.807159 
	C566.653320,440.763580 567.729858,441.453522 568.093506,442.933655 
	C568.441650,444.351044 567.987427,445.571808 566.757446,446.360596 
	C564.787903,447.623596 563.358826,446.735138 562.071899,444.666718 
z"/>
<path fill="#000000" opacity="1.000000" stroke="none" 
	d="
M463.066833,446.022888 
	C460.872284,447.561859 459.330658,446.948212 458.246307,445.188293 
	C457.501556,443.979553 457.681702,442.647583 458.747498,441.617493 
	C459.809692,440.590820 461.153992,440.474701 462.348419,441.193298 
	C464.175751,442.292603 464.594910,443.876923 463.066833,446.022888 
z"/>
<path fill="#000000" opacity="1.000000" stroke="none" 
	d="
M441.399719,443.150024 
	C441.463501,445.683685 440.393311,446.932098 438.203430,446.856812 
	C436.767120,446.807373 435.846588,445.856934 435.474213,444.445465 
	C435.085297,442.971405 435.610687,441.760529 436.919678,441.175293 
	C438.790161,440.339081 440.434875,440.675873 441.399719,443.150024 
z"/>
<path fill="#000000" opacity="1.000000" stroke="none" 
	d="
M577.641785,446.520599 
	C575.056213,447.359711 573.779358,446.268250 573.220398,444.254517 
	C572.876343,443.014801 573.523010,441.978424 574.585999,441.317535 
	C575.835876,440.540344 577.198364,440.531525 578.239197,441.580658 
	C579.812256,443.166199 579.576172,444.819519 577.641785,446.520599 
z"/>
<path fill="#000000" opacity="1.000000" stroke="none" 
	d="
M449.781067,446.873840 
	C446.662628,446.088531 445.907410,444.162079 447.367554,441.964111 
	C448.558258,440.171692 450.735626,440.223541 452.062866,441.904877 
	C453.939697,444.282471 452.490845,445.835022 449.781067,446.873840 
z"/>
</svg>